<?xml version="1.0" encoding="utf-8"?>
<!-- Generator: Adobe Illustrator 25.2.1, SVG Export Plug-In . SVG Version: 6.00 Build 0)  -->
<svg version="1.1" id="Layer_1" xmlns="http://www.w3.org/2000/svg" xmlns:xlink="http://www.w3.org/1999/xlink" x="0px" y="0px"
	 viewBox="0 0 512 512" style="enable-background:new 0 0 512 512;" xml:space="preserve">
<style type="text/css">
	.st0{fill:#212F4D;}
</style>
<path class="st0" d="M256,31C131.74,31,31,131.74,31,256s100.74,225,225,225c124.26,0,225-100.74,225-225S380.26,31,256,31z
	 M353.89,313.92c0,11.72-9.5,21.22-21.22,21.22c-11.72,0-21.22-9.5-21.22-21.22v-83.81L194.42,348.43c-4.15,4.2-9.62,6.3-15.09,6.3
	c-5.39,0-10.79-2.04-14.92-6.13c-8.33-8.24-8.4-21.68-0.16-30.01l117.59-118.88h-92.99c-11.72,0-21.22-9.5-21.22-21.22
	s9.5-21.22,21.22-21.22h143.83c0.55,0,1.09,0.04,1.63,0.08c0.13,0.01,0.26,0.01,0.4,0.02c0.95,0.09,1.87,0.25,2.77,0.46
	c0.18,0.04,0.36,0.09,0.54,0.14c0.9,0.23,1.77,0.51,2.62,0.85c0.04,0.01,0.07,0.02,0.11,0.04c0.01,0,0.02,0.01,0.03,0.02
	c0.89,0.37,1.74,0.81,2.57,1.29c0.17,0.1,0.34,0.21,0.51,0.31c0.78,0.49,1.54,1,2.24,1.58c0.02,0.02,0.04,0.03,0.06,0.05
	c0.71,0.58,1.36,1.23,1.99,1.89c0.15,0.16,0.31,0.33,0.45,0.5c0.61,0.69,1.18,1.4,1.69,2.17c0.01,0.01,0.01,0.02,0.02,0.03
	c0.51,0.76,0.96,1.57,1.37,2.4c0.08,0.17,0.17,0.34,0.24,0.51c0.78,1.68,1.34,3.48,1.65,5.37c0.04,0.22,0.07,0.43,0.1,0.65
	c0.13,0.94,0.21,1.89,0.21,2.86V313.92z"/>
</svg>
