<?xml version="1.0" encoding="utf-8"?>
<!-- Generator: Adobe Illustrator 25.2.1, SVG Export Plug-In . SVG Version: 6.00 Build 0)  -->
<svg version="1.1" id="Layer_1" xmlns="http://www.w3.org/2000/svg" xmlns:xlink="http://www.w3.org/1999/xlink" x="0px" y="0px"
	 viewBox="0 0 512 512" style="enable-background:new 0 0 512 512;" xml:space="preserve">
<style type="text/css">
	.st0{fill:#212F4D;}
</style>
<path class="st0" d="M452.45,225.76c0,0-7.53-8.08-14.93-17.64c-6.91-8.93-11.67-19.33-13.94-30.39
	c-5.06-24.74-18.7-62.88-60.45-103.44c-49.4-48-132.43-43.14-132.43-43.14c-109.51,0-198.3,88.78-198.3,198.3
	c0,46.12,15.74,88.55,42.15,122.22c7.91,10.09,11.96,22.68,11.96,35.5v63.74c0,16.62,13.48,30.1,30.1,30.1h163.96
	c16.62,0,30.1-13.48,30.1-30.1v-27.32h54.93c31.73,0,57.45-25.72,57.45-57.45v-53.8h15.2c14.14,0,27.75-6.67,35.5-18.5
	c2.74-4.19,4.86-9.11,5.63-14.8C482.41,256.28,452.45,225.76,452.45,225.76z M330.85,213.36c-5.06,0-29.92,0-51.42,0
	c0,0,11.84,22.56-7.4,44.39c-19.24,21.82-44.39,9.62-44.39,9.62v17.2c0,15.22-12.34,27.56-27.56,27.56
	c-15.22,0-27.56-12.34-27.56-27.56v-18.68c0,0-52.9,18.5-58.08-40.32c0,0-33.66-13.32-26.26-53.27
	c3.41-18.41,21.82-26.12,40.69-29.1v-0.01c0,0,0.42-33.77,28.51-40.06c15.65-3.5,26.94-0.11,33.87,3.57l0,0
	c0,0,10.12-20.21,36.39-19.84c18.04,0.25,30.14,11.67,35.95,18.8l0,0c0,0,13.24-9.31,38.03,0c12.81,4.81,19.19,15.04,22.37,23.81
	c0.15,0.01,42.73,1.84,42.73,38.4C366.73,204.49,340.1,213.36,330.85,213.36z"/>
</svg>
