<?xml version="1.0" encoding="utf-8"?>
<!-- Generator: Adobe Illustrator 25.2.1, SVG Export Plug-In . SVG Version: 6.00 Build 0)  -->
<svg version="1.1" id="Layer_1" xmlns="http://www.w3.org/2000/svg" xmlns:xlink="http://www.w3.org/1999/xlink" x="0px" y="0px"
	 viewBox="0 0 512 512" style="enable-background:new 0 0 512 512;" xml:space="preserve">
<style type="text/css">
	.st0{fill:#212F4D;}
</style>
<g>
	<path class="st0" d="M37.95,407.72c-9.36,10.82-8.69,27.04,1.53,37.05l28.63,28.06c10.06,9.86,25.99,10.36,36.65,1.15L227.57,367.9
		v84c0,15,11.34,28.1,26.31,29.04c16.39,1.04,29.97-11.95,29.97-28.08V319.28l45.3-39.12l-97.85-95.94L37.95,407.72z"/>
	<path class="st0" d="M382.13,31c-29.55,0-56.06,13-74.12,33.62l14.46,14.18l112.29,110.1l13.73,13.45
		c19.77-18.03,32.16-43.98,32.16-72.83C480.65,75.12,436.53,31,382.13,31z"/>
	<path class="st0" d="M412.71,207.94L303.46,100.82l-11.43-11.23l-4.61-4.52c-24.72,23.56-29.77,53-30.5,69.51
		c-0.31,7.81,0.34,12.72,0.34,12.72v0.03L348,256.28c0,0,3.26,0.34,8.68,0.08c14.97-0.65,46.48-5.51,71.56-33.2l-4.41-4.33
		L412.71,207.94z"/>
</g>
</svg>
