<?xml version="1.0" encoding="utf-8"?>
<!-- Generator: Adobe Illustrator 25.2.1, SVG Export Plug-In . SVG Version: 6.00 Build 0)  -->
<svg version="1.1" id="Layer_1" xmlns="http://www.w3.org/2000/svg" xmlns:xlink="http://www.w3.org/1999/xlink" x="0px" y="0px"
	 viewBox="0 0 512 512" style="enable-background:new 0 0 512 512;" xml:space="preserve">
<style type="text/css">
	.st0{fill:#212F4D;}
</style>
<g>
	<path class="st0" d="M475.08,319.04L475.08,319.04c-10.03-13.67-29.27-16.57-42.88-6.45l-91.46,67.98h-97.37
		c-3.31,0-6.29-1.35-8.48-3.51c-2.1-2.08-3.41-4.94-3.51-8.11c-0.2-6.79,5.75-12.35,12.54-12.35h61.85c7.12,0,13.57-2.88,18.25-7.55
		c5.06-5.06,8.03-12.22,7.48-20.07c-0.95-13.65-12.85-23.96-26.53-23.96H188.55c-27.21,0-53.51,9.68-74.22,27.33l-28.11,23.92H55.3
		c-13.42,0-24.3,10.88-24.3,24.3v51.25c0,13.42,10.88,24.3,24.3,24.3h256.8c19.13,0,37.76-6.16,53.11-17.58l103.46-76.89
		C482.15,351.62,485.02,332.59,475.08,319.04z"/>
	<path class="st0" d="M243.89,280.55c62.04,0,112.33-50.29,112.33-112.33c0-62.04-50.29-112.33-112.33-112.33
		c-62.04,0-112.33,50.29-112.33,112.33C131.56,230.25,181.85,280.55,243.89,280.55z M200.8,199.04c0,0,2.65-9.92,15.54-6.61
		c12.9,3.31,24.97,6.61,32.57,6.61c7.6,0,13.39-4.79,13.39-8.76c0-3.97-11.08-9.59-27.28-12.9c-16.2-3.31-34.22-12.07-34.22-32.74
		c0-18.57,12.84-29.11,30.56-32.74v-7.27c0-6.92,5.61-12.54,12.54-12.54s12.54,5.61,12.54,12.54v6.25
		c12.97,1.62,22.9,7.05,22.9,17.39c0,15.05-14.05,11.57-20.67,10.25c-6.61-1.32-19.01-2.48-24.63-1.49
		c-5.62,0.99-11.74,4.63-8.6,9.75c3.14,5.13,30.26,8.1,45.14,16.53c14.88,8.43,15.71,19.18,15.71,35.71
		c0,12.18-14.35,20.31-29.84,23.89v8.85c0,6.92-5.61,12.54-12.54,12.54s-12.54-5.61-12.54-12.54v-8.18
		c-7.1-1.4-17.31-4.01-25.76-8.52C205.59,215.08,197,209.62,200.8,199.04z"/>
</g>
</svg>
