<?xml version="1.0" encoding="utf-8"?>
<!-- Generator: Adobe Illustrator 25.2.1, SVG Export Plug-In . SVG Version: 6.00 Build 0)  -->
<svg version="1.1" id="Layer_1" xmlns="http://www.w3.org/2000/svg" xmlns:xlink="http://www.w3.org/1999/xlink" x="0px" y="0px"
	 viewBox="0 0 512 512" style="enable-background:new 0 0 512 512;" xml:space="preserve">
<style type="text/css">
	.st0{fill:#212F4D;}
</style>
<g>
	<path class="st0" d="M113.7,196.88H60.06c-16.05,0-29.06,13.01-29.06,29.06v198.92c0,16.05,13.01,29.06,29.06,29.06h53.64
		c16.05,0,29.06-13.01,29.06-29.06V225.93C142.75,209.89,129.74,196.88,113.7,196.88z"/>
	<path class="st0" d="M479.2,215.61c-5.25-18.56-22.7-31.02-41.98-31.02h0H313.54c0.15-0.35,0.32-0.71,0.47-1.04
		c13.23-30.18,26.3-69.28,26.71-70.93c5.92-23.45-8.29-47.25-31.74-53.17c-23.43-5.92-47.25,8.29-53.17,31.73
		c-1.15,4.54-3.64,13.65-6.89,24.07c-5.69,18.2-15.38,34.94-28.42,48.85c-11.32,12.07-20.2,20.5-20.2,20.5
		c-12.29,9.22-19.34,22.27-23.37,33.71c-3.69,10.48-5.31,21.58-5.31,32.69v93.41c0,44.01,32.83,68.11,42.68,74.35
		c2.13,1.35,4.17,2.83,6.17,4.37c17.15,13.2,36.67,21.13,49.1,25.27c3.1,1.36,6.38,2.34,9.8,2.95c1.84,0.49,2.88,0.72,2.88,0.72
		h4.84h87.91h1.12l0.01-0.06c23.65-0.61,42.65-19.93,42.65-43.73c0-2.3-0.23-4.55-0.57-6.76c16.25-6.4,27.77-22.2,27.77-40.72
		c0-8.16-2.28-15.78-6.17-22.32c19.9-4.13,34.85-21.75,34.85-42.87c0-12.11-4.92-23.07-12.86-31
		C476.57,254.55,484.89,235.72,479.2,215.61z"/>
</g>
</svg>
