<svg class="svg-inline--fa fa-signal" aria-hidden="true" focusable="false" data-prefix="fas" data-icon="signal" role="img" xmlns="http://www.w3.org/2000/svg" viewBox="0 0 640 512"><path fill="currentColor" d="M576 0c17.7 0 32 14.3 32 32l0 448c0 17.7-14.3 32-32 32s-32-14.3-32-32l0-448c0-17.7 14.3-32 32-32zM448 96c17.7 0 32 14.3 32 32l0 352c0 17.7-14.3 32-32 32s-32-14.3-32-32l0-352c0-17.7 14.3-32 32-32zM352 224l0 256c0 17.7-14.3 32-32 32s-32-14.3-32-32l0-256c0-17.7 14.3-32 32-32s32 14.3 32 32zM192 288c17.7 0 32 14.3 32 32l0 160c0 17.7-14.3 32-32 32s-32-14.3-32-32l0-160c0-17.7 14.3-32 32-32zM96 416l0 64c0 17.7-14.3 32-32 32s-32-14.3-32-32l0-64c0-17.7 14.3-32 32-32s32 14.3 32 32z"></path></svg>