<?xml version="1.0" encoding="utf-8"?>
<!-- Generator: Adobe Illustrator 25.2.1, SVG Export Plug-In . SVG Version: 6.00 Build 0)  -->
<svg version="1.1" id="Layer_1" xmlns="http://www.w3.org/2000/svg" xmlns:xlink="http://www.w3.org/1999/xlink" x="0px" y="0px"
	 viewBox="0 0 512 512" style="enable-background:new 0 0 512 512;" xml:space="preserve">
<style type="text/css">
	.st0{fill:#212F4D;}
</style>
<g>
	<path class="st0" d="M478.27,243.94c-18.66-39.21-86.94-160.72-217.73-163.47c-1.51-0.03-3.04-0.05-4.54-0.05s-3.04,0.03-4.54,0.05
		C120.67,83.23,52.38,204.73,33.73,243.94c-3.63,7.64-3.63,16.48,0,24.12c18.66,39.21,86.94,160.72,217.73,163.47
		c1.51,0.03,3.04,0.05,4.54,0.05s3.04-0.03,4.54-0.05c130.79-2.76,199.07-124.26,217.73-163.47
		C481.91,260.42,481.91,251.58,478.27,243.94z M255.99,368.87c-62.34,0-112.88-50.54-112.88-112.88s50.54-112.88,112.88-112.88
		S368.87,193.65,368.87,256S318.33,368.87,255.99,368.87z"/>
	<path class="st0" d="M261.92,181.3c-3.73-0.29-6.16,2.62-5.34,6.27c1.4,6.27,1.79,12.92,0.95,19.78
		c-3.18,26.03-24.15,46.96-50.18,50.09c-6.87,0.83-13.53,0.43-19.8-0.99c-3.65-0.83-6.57,1.6-6.28,5.33
		c3.06,40.11,37.7,71.38,79.11,69.02c37.6-2.15,68.24-32.78,70.41-70.37C333.18,219.06,301.97,184.43,261.92,181.3z"/>
</g>
</svg>
