<?xml version="1.0" encoding="utf-8"?>
<!-- Generator: Adobe Illustrator 25.2.1, SVG Export Plug-In . SVG Version: 6.00 Build 0)  -->
<svg version="1.1" id="Layer_1" xmlns="http://www.w3.org/2000/svg" xmlns:xlink="http://www.w3.org/1999/xlink" x="0px" y="0px"
	 viewBox="0 0 512 512" style="enable-background:new 0 0 512 512;" xml:space="preserve">
<style type="text/css">
	.st0{fill:#212F4D;}
</style>
<g>
	<path class="st0" d="M369.61,216.24c-61.52,0-111.39,49.87-111.39,111.39c0,61.52,49.87,111.39,111.39,111.39
		c61.52,0,111.39-49.87,111.39-111.39C481,266.11,431.13,216.24,369.61,216.24z M421.81,310.75l-57.02,57.02
		c-2.23,2.22-5.25,3.46-8.4,3.46c-0.05,0-0.09,0-0.13,0c-3.19-0.04-6.24-1.35-8.45-3.65l-30.6-31.8
		c-4.56-4.74-4.42-12.29,0.32-16.85c4.75-4.56,12.29-4.42,16.85,0.33l22.2,23.07l48.42-48.48c4.67-4.64,12.22-4.61,16.86,0.05
		C426.51,298.56,426.48,306.11,421.81,310.75z"/>
	<path class="st0" d="M369.61,189.07c22.35,0,43.45,5.32,62.14,14.72c0.77-5.65,1.18-11.41,1.18-17.22
		c0-62.75-50.85-113.6-113.6-113.6c-35.13,0-66.53,15.95-87.36,40.99c-20.83-25.04-52.23-40.99-87.36-40.99
		C81.85,72.98,31,123.83,31,186.58c0,32.35,12.17,63,33.88,83.68L211.41,408.1c5.56,5.23,12.92,8.14,20.56,8.14s15-2.9,20.56-8.14
		l2.59-2.44c-15.18-22.23-24.06-49.09-24.06-78.03C231.05,251.11,293.08,189.07,369.61,189.07z"/>
</g>
</svg>
