<?xml version="1.0" encoding="utf-8"?>
<!-- Generator: Adobe Illustrator 25.2.1, SVG Export Plug-In . SVG Version: 6.00 Build 0)  -->
<svg version="1.1" id="Layer_1" xmlns="http://www.w3.org/2000/svg" xmlns:xlink="http://www.w3.org/1999/xlink" x="0px" y="0px"
	 viewBox="0 0 512 512" style="enable-background:new 0 0 512 512;" xml:space="preserve">
<style type="text/css">
	.st0{fill:#212F4D;}
</style>
<path class="st0" d="M257.42,58.33c-123.48,0-223.58,81.29-223.58,181.57c0,38.06,14.45,73.37,39.1,102.56
	c-3.97,39.28-20.29,65.67-37.13,82.78c-11.24,11.42-1.31,30.5,14.56,28.25c66.07-9.37,115.56-47.88,115.56-47.88l0.05-0.04
	c27.92,10.18,58.86,15.89,91.45,15.89C380.9,421.46,481,340.17,481,239.9C481,139.62,380.9,58.33,257.42,58.33z M258.52,353.4
	c-15.63,0-28.34-12.71-28.34-28.34c0-15.63,12.71-28.34,28.34-28.34s28.34,12.71,28.34,28.34
	C286.86,340.69,274.15,353.4,258.52,353.4z M329.87,182.12c0,26.47-15.56,50.68-39.64,61.68l-13.15,6v6.2
	c0,11.64-9.44,21.09-21.09,21.09s-21.09-9.44-21.09-21.09v-19.76c0-8.26,4.82-15.75,12.33-19.18l25.48-11.63
	c9.1-4.16,14.98-13.31,14.98-23.32v-2.24c0-7.17-5.83-13.01-13.01-13.01h-39.27c-5.34,0-10.07,3.2-12.07,8.15l-2.89,7.18
	c-4.35,10.8-16.62,16.04-27.43,11.69c-10.8-4.35-16.04-16.63-11.69-27.43l2.89-7.18c8.46-21.01,28.55-34.58,51.19-34.58h39.27
	c30.43,0,55.18,24.75,55.18,55.18V182.12z"/>
</svg>
