<?xml version="1.0" encoding="utf-8"?>
<!-- Generator: Adobe Illustrator 25.2.1, SVG Export Plug-In . SVG Version: 6.00 Build 0)  -->
<svg version="1.1" id="Layer_1" xmlns="http://www.w3.org/2000/svg" xmlns:xlink="http://www.w3.org/1999/xlink" x="0px" y="0px"
	 viewBox="0 0 512 512" style="enable-background:new 0 0 512 512;" xml:space="preserve">
<style type="text/css">
	.st0{fill:#212F4D;}
</style>
<path class="st0" d="M257.42,58.33c-123.48,0-223.58,81.29-223.58,181.57c0,38.06,14.45,73.37,39.1,102.56
	c-3.97,39.28-20.29,65.67-37.13,82.78c-11.24,11.42-1.31,30.5,14.56,28.25c66.07-9.37,115.56-47.88,115.56-47.88l0.05-0.04
	c27.92,10.18,58.86,15.89,91.45,15.89C380.9,421.46,481,340.17,481,239.9C481,139.62,380.9,58.33,257.42,58.33z M358.88,196.19
	L243.21,311.11c-3.95,3.93-9.3,6.13-14.86,6.13c-0.08,0-0.16,0-0.24,0c-5.65-0.06-11.04-2.39-14.95-6.47l-54.13-56.26
	c-8.07-8.39-7.82-21.74,0.57-29.81c8.4-8.07,21.74-7.82,29.81,0.58l39.27,40.82l100.47-99.82c8.26-8.21,21.61-8.16,29.82,0.1
	C367.18,174.63,367.14,187.98,358.88,196.19z"/>
</svg>
