<?xml version="1.0" encoding="utf-8"?>
<!-- Generator: Adobe Illustrator 25.2.1, SVG Export Plug-In . SVG Version: 6.00 Build 0)  -->
<svg version="1.1" id="Layer_1" xmlns="http://www.w3.org/2000/svg" xmlns:xlink="http://www.w3.org/1999/xlink" x="0px" y="0px"
	 viewBox="0 0 750 750" style="enable-background:new 0 0 750 750;" xml:space="preserve">
<g>
	<path d="M486.96,308.76H263.04c-9.26,0-18.02,4.49-23.43,12c-5.42,7.51-6.9,17.24-3.97,26.03l24.9,74.7
		c3.94,11.82,14.95,19.75,27.41,19.75h174.1c12.46,0,23.47-7.93,27.41-19.75l24.9-74.7c2.93-8.79,1.45-18.52-3.97-26.03
		C504.98,313.25,496.22,308.76,486.96,308.76z M495.39,340.46l-24.9,74.71c-1.21,3.63-4.61,6.07-8.44,6.07h-174.1
		c-3.83,0-7.23-2.44-8.44-6.07l-24.9-74.71c-1.92-5.75,2.37-11.7,8.43-11.7h223.92C493.02,328.76,497.31,334.71,495.39,340.46z"/>
	<path d="M430.7,477.5H319.3c-9.26,0-18.02,4.49-23.43,12c-5.42,7.51-6.9,17.24-3.97,26.03l24.9,74.7
		c3.94,11.82,14.95,19.75,27.41,19.75h61.58c12.46,0,23.47-7.93,27.41-19.75l24.91-74.71c2.92-8.78,1.44-18.51-3.98-26.02
		C448.72,481.99,439.96,477.5,430.7,477.5z"/>
	<path d="M566.65,152.02c-5.41-7.51-14.17-12-23.43-12H206.78c-9.26,0-18.02,4.49-23.43,12c-5.42,7.51-6.9,17.25-3.97,26.03
		l24.91,74.7c3.94,11.82,14.95,19.75,27.4,19.75h286.62c12.45,0,23.46-7.93,27.4-19.75l24.91-74.7
		C573.55,169.27,572.07,159.54,566.65,152.02z M551.65,171.72l-24.91,74.71c-1.21,3.63-4.61,6.07-8.44,6.07H231.7
		c-3.83,0-7.23-2.44-8.44-6.07l-24.91-74.71c-1.92-5.75,2.37-11.7,8.43-11.7h336.44C549.28,160.02,553.57,165.97,551.65,171.72z"/>
</g>
</svg>
