<svg xmlns="http://www.w3.org/2000/svg" viewBox="0 0 700 700">
  <!-- Adjusted paths to remove transform and match SSOT format -->
  <path d="M171.3 558.7c-5.9-1.9-12.6-8-15.7-14.3-4.9-9.9-4.4-12.6 10.9-58.9 9.6-28.8 14.4-41.9 16.5-44.8 4.1-5.7 10.2-9.8 16.3-11.1 3.7-.8 47.3-1 153.2-.8l148 .3 5.1-2.7c6.5-3.4 11.7-9.2 14.2-15.9 1-3 7.5-21.4 14.3-40.9 12.1-34.7 12.4-35.7 12.4-44 0-7.4-.3-9.1-2.7-13.1-1.5-2.5-4.4-6.1-6.4-7.9-7.9-6.9 7.4-6.3-186.3-6.4-148.2-.1-176-.1-179.8-1.3zm351.7-19.1c3.6-1.9 5-6.6 3.5-11.4-2.9-9.5-25.4-73.5-26.4-75.5-.6-1.1-2-2.5-3.1-3.1-.5-.3-22.6-.5-49.3-.5h-145.8l-2.3 2.3c-1.7 1.7-6.2 13.8-15.5 42-12.8 38.5-13.1 39.7-11.7 42.6.9 1.6 2.2 3.3 2.8 3.8 2.3 1.4 70.5 2 209 1.7 100.8-.2 136.2-.5 137.8-1.4z"/>
  <path d="M225.2 255.7c-10.4-5.1-16.2-14.2-16.2-25.1 0-3.7 3.3-14.9 12.9-43.2 7.1-21.1 13.9-40.6 15.1-43.4 2.7-6.3 9-12.3 15.6-14.8 4.7-1.8 8.8-1.9 96.9-1.9 87.8 0 92.2.1 96.9 1.9 5.9 2.3 12.1 7.6 14.7 12.8 1.1 2.1 8.1 21 15.5 42.1 14.8 41.8 15.9 46.6 13 55.5-2.2 6.5-8.3 13.4-14.8 16.6l-5.2 2.6H231.3l-6.1-3.1z"/>
  <path d="M289.3 422c-9.1-1.8-16.4-7.2-20.8-15.2-2.5-4.4-3-6.5-3-12.3 0-6.5 1.1-10 14.5-47.9 14-39.6 14.7-41.1 19.2-46.2 2.9-3.1 6.8-6.1 10-7.5 5.3-2.4 5.6-2.4 39.8-2.4 31.5 0 34.9.2 39.4 1.9 5.8 2.2 13 8.5 15.6 13.6 1 2 8.3 21.2 16.2 42.6 13.4 36.5 14.3 39.3 14.3 45.9-.1 13.5-8.2 23.4-22.2 27-4.8 1.3-15.1 1.5-62.3 1.4-31.1-.1-58.4-.5-60.7-.9zm119-19.9c3.4-1.3 6.7-5 6.7-7.5 0-1.2-6.4-19.6-14.3-41-12-33-14.6-39.2-17-41-2.7-2-4.1-2.1-33.6-2.4l-30.7-.3-3.4 2.3c-3.3 2.3-4.1 4.2-17.2 41.3-7.6 21.5-13.8 39.9-13.8 41.1 0 2 4.2 6.7 7 7.7 2.7 1 113.7.7 116.3-.2z"/>
  <path d="M140 82.7c0-2-.4-2.3-3.3-1.9-4.3.5-6.7-1.8-6.7-6.3 0-4.8 2.1-6.5 8.1-6.4l4.9.2V76.6c0-6.8-.3-8.4-1.5-8.4-.9 0-1.5.9-1.5 2.3z"/>
  <path d="M153 76.6v-8.3l5-.2c4 0 5.2.3 6.5 2.1 3.4 5 0 11.5-5.6 10.4-2.6-.5-2.9-.3-2.9 1.9 0 1.6-.6 2.5-1.5 2.5-1.2 0-1.5-1.6-1.5-8.4z"/>
  <path d="M112 50.5c0-6.9.3-8.5 1.5-8.5s1.5 1.3 1.5 5.8l.1 5.7 3.6-5.7c2.3-3.7 4.3-5.8 5.4-5.8 1.7 0 1.9.9 1.9 8.5 0 6.9-.3 8.5-1.5 8.5s-1.5-1.3-1.5-5.7l-.1-5.8-3.6 5.8c-2.3 3.6-4.3 5.7-5.4 5.7-1.7 0-1.9-.9-1.9-8.5z"/>
</svg>