<?xml version="1.0" encoding="utf-8"?>
<!-- Generator: Adobe Illustrator 25.2.1, SVG Export Plug-In . SVG Version: 6.00 Build 0)  -->
<svg version="1.1" id="Layer_1" xmlns="http://www.w3.org/2000/svg" xmlns:xlink="http://www.w3.org/1999/xlink" x="0px" y="0px"
	 viewBox="0 0 394.19 469.96" style="enable-background:new 0 0 394.19 469.96;" xml:space="preserve">
<g>
	<path d="M309.06,168.74H85.14c-9.26,0-18.02,4.49-23.43,12c-5.41,7.51-6.9,17.24-3.97,26.03l24.9,74.7
		c3.94,11.82,14.96,19.75,27.41,19.75h174.11c12.45,0,23.46-7.93,27.4-19.75l24.91-74.7c2.92-8.79,1.44-18.52-3.97-26.03
		C327.08,173.23,318.32,168.74,309.06,168.74z"/>
	<path d="M252.8,337.48H141.41c-9.27,0-18.03,4.49-23.44,12c-5.42,7.51-6.9,17.24-3.97,26.03l24.9,74.7
		c3.94,11.82,14.96,19.75,27.41,19.75h61.59c12.45,0,23.46-7.93,27.4-19.75l24.91-74.71c2.93-8.78,1.44-18.51-3.97-26.02
		C270.82,341.97,262.06,337.48,252.8,337.48z M261.23,369.18l-24.9,74.71c-1.21,3.63-4.61,6.07-8.43,6.07h-61.59
		c-3.83,0-7.22-2.44-8.43-6.07l-24.91-74.71c-1.92-5.75,2.37-11.7,8.43-11.7h111.4C258.87,357.48,263.15,363.43,261.23,369.18z"/>
	<path d="M388.76,12c-5.42-7.51-14.18-12-23.44-12H28.89C19.63,0,10.86,4.49,5.45,12c-5.41,7.51-6.9,17.25-3.97,26.03l24.91,74.7
		c3.94,11.82,14.96,19.75,27.41,19.75h286.61c12.45,0,23.46-7.93,27.4-19.75l24.91-74.7C395.65,29.25,394.17,19.52,388.76,12z
		 M373.75,31.7l-24.91,74.71c-1.21,3.63-4.61,6.07-8.43,6.07H53.8c-3.83,0-7.22-2.44-8.43-6.07L20.45,31.7
		C18.54,25.95,22.82,20,28.89,20h336.43C371.39,20,375.67,25.95,373.75,31.7z"/>
</g>
</svg>
