<?xml version="1.0" encoding="utf-8"?>
<!-- Generator: Adobe Illustrator 25.2.1, SVG Export Plug-In . SVG Version: 6.00 Build 0)  -->
<svg version="1.1" id="Layer_1" xmlns="http://www.w3.org/2000/svg" xmlns:xlink="http://www.w3.org/1999/xlink" x="0px" y="0px"
	 viewBox="0 0 750 750" style="enable-background:new 0 0 750 750;" xml:space="preserve">
<g>
	<path d="M486.96,308.76H263.04c-9.26,0-18.02,4.49-23.43,12c-5.41,7.51-6.9,17.24-3.97,26.03l24.9,74.7
		c3.94,11.82,14.96,19.75,27.41,19.75h174.11c12.45,0,23.46-7.93,27.4-19.75l24.91-74.7c2.92-8.79,1.44-18.52-3.97-26.03
		C504.98,313.25,496.22,308.76,486.96,308.76z"/>
	<path d="M430.7,477.5H319.31c-9.27,0-18.03,4.49-23.44,12c-5.42,7.51-6.9,17.24-3.97,26.03l24.9,74.7
		c3.94,11.82,14.96,19.75,27.41,19.75h61.59c12.45,0,23.46-7.93,27.4-19.75l24.91-74.71c2.93-8.78,1.44-18.51-3.97-26.02
		C448.72,481.99,439.96,477.5,430.7,477.5z M439.13,509.2l-24.9,74.71c-1.21,3.63-4.61,6.07-8.43,6.07h-61.59
		c-3.83,0-7.22-2.44-8.43-6.07l-24.91-74.71c-1.92-5.75,2.37-11.7,8.43-11.7h111.4C436.77,497.5,441.05,503.45,439.13,509.2z"/>
	<path d="M566.66,152.02c-5.42-7.51-14.18-12-23.44-12H206.79c-9.26,0-18.03,4.49-23.44,12c-5.41,7.51-6.9,17.25-3.97,26.03
		l24.91,74.7c3.94,11.82,14.96,19.75,27.41,19.75h286.61c12.45,0,23.46-7.93,27.4-19.75l24.91-74.7
		C573.55,169.27,572.07,159.54,566.66,152.02z M551.65,171.72l-24.91,74.71c-1.21,3.63-4.61,6.07-8.43,6.07H231.7
		c-3.83,0-7.22-2.44-8.43-6.07l-24.92-74.71c-1.91-5.75,2.37-11.7,8.44-11.7h336.43C549.29,160.02,553.57,165.97,551.65,171.72z"/>
</g>
</svg>
