<?xml version="1.0" encoding="utf-8"?>
<!-- Generator: Adobe Illustrator 25.2.1, SVG Export Plug-In . SVG Version: 6.00 Build 0)  -->
<svg version="1.1" id="Layer_1" xmlns="http://www.w3.org/2000/svg" xmlns:xlink="http://www.w3.org/1999/xlink" x="0px" y="0px"
	 viewBox="0 0 394.19 469.96" style="enable-background:new 0 0 394.19 469.96;" xml:space="preserve">
<g>
	<path d="M309.05,168.74H85.14c-9.26,0-18.02,4.49-23.44,12c-5.41,7.51-6.9,17.24-3.97,26.03l24.91,74.7
		c3.94,11.82,14.95,19.75,27.4,19.75h174.11c12.45,0,23.47-7.93,27.41-19.75l24.9-74.7c2.93-8.79,1.44-18.52-3.97-26.03
		C327.07,173.23,318.31,168.74,309.05,168.74z M317.49,200.44l-24.91,74.71c-1.21,3.63-4.6,6.07-8.43,6.07H110.04
		c-3.82,0-7.22-2.44-8.43-6.07l-24.9-74.71c-1.92-5.75,2.36-11.7,8.43-11.7h223.91C315.12,188.74,319.41,194.69,317.49,200.44z"/>
	<path d="M252.8,337.48H141.4c-9.26,0-18.02,4.49-23.44,12c-5.41,7.51-6.9,17.24-3.97,26.03l24.91,74.7
		c3.94,11.82,14.95,19.75,27.4,19.75h61.59c12.45,0,23.47-7.93,27.41-19.75l24.9-74.71c2.93-8.78,1.44-18.51-3.97-26.02
		C270.81,341.97,262.05,337.48,252.8,337.48z M261.23,369.18l-24.91,74.71c-1.21,3.63-4.6,6.07-8.43,6.07H166.3
		c-3.82,0-7.22-2.44-8.43-6.07l-24.9-74.71c-1.92-5.75,2.36-11.7,8.43-11.7h111.39C258.86,357.48,263.15,363.43,261.23,369.18z"/>
	<path d="M388.75,12c-5.41-7.51-14.18-12-23.44-12H28.88C19.62,0,10.86,4.49,5.44,12c-5.41,7.51-6.89,17.25-3.96,26.03l24.91,74.7
		c3.94,11.82,14.95,19.75,27.4,19.75H340.4c12.45,0,23.47-7.93,27.4-19.75l24.92-74.7C395.65,29.25,394.16,19.52,388.75,12z"/>
</g>
</svg>
