<?xml version="1.0" standalone="no"?>
<!DOCTYPE svg PUBLIC "-//W3C//DTD SVG 20010904//EN"
 "http://www.w3.org/TR/2001/REC-SVG-20010904/DTD/svg10.dtd">
<svg version="1.0" xmlns="http://www.w3.org/2000/svg"
 width="256.000000pt" height="256.000000pt" viewBox="0 0 256.000000 256.000000"
 preserveAspectRatio="xMidYMid meet">

<g transform="translate(0.000000,256.000000) scale(0.100000,-0.100000)"
fill="#000000" stroke="none">
<path d="M1025 2526 c-421 -89 -769 -383 -924 -780 -151 -386 -106 -821 122
-1168 74 -113 241 -283 347 -353 223 -148 447 -216 715 -216 262 0 486 65 697
204 288 188 481 473 555 817 25 119 25 381 0 500 -55 257 -177 479 -364 662
-183 179 -415 299 -667 343 -135 23 -345 19 -481 -9z m615 -570 c165 -87 164
-327 -2 -410 -184 -92 -383 75 -328 275 13 48 75 118 124 140 60 27 150 25
206 -5z m-642 -575 c18 -107 77 -274 142 -405 33 -66 60 -121 60 -122 0 -6
-166 68 -209 93 -50 29 -56 25 -67 -45 -19 -126 73 -254 202 -283 112 -25 218
25 278 131 l31 55 3 320 3 320 110 0 109 0 0 -290 c0 -329 -7 -391 -54 -490
-41 -85 -88 -141 -161 -189 -176 -118 -398 -109 -560 22 -241 194 -239 518 6
841 35 46 68 90 74 98 17 22 20 16 33 -56z"/>
<path d="M1492 1814 c-49 -34 -48 -97 2 -130 75 -48 155 58 91 121 -28 29 -61
32 -93 9z"/>
</g>
</svg>
